<?xml version="1.0" standalone="no"?>
<!DOCTYPE svg PUBLIC "-//W3C//DTD SVG 1.1//EN" "http://www.w3.org/Graphics/SVG/1.1/DTD/svg11.dtd" >
<!--
2013-9-30: Created.
-->
<svg>
<metadata>
Created by iconfont
</metadata>
<defs>

<font id="iconfont" horiz-adv-x="1024" >
  <font-face
    font-family="iconfont"
    font-weight="500"
    font-stretch="normal"
    units-per-em="1024"
    ascent="896"
    descent="-128"
  />
    <missing-glyph />
    
    <glyph glyph-name="-enter" unicode="&#58884;" d="M827.076923 382.70030799999995L327.719385-128 212.164923-4.647384999999986l383.803077 392.585847L196.923077 769.969231 320.078769 896 827.076923 382.70030799999995z"  horiz-adv-x="1024" />

    
    <glyph glyph-name="-returnTop" unicode="&#58885;" d="M1453.312 171.885714L726.674286 896 0 171.885714 301.056-128 726.674286 296.228571 1152.292571-128z"  horiz-adv-x="1453" />

    
    <glyph glyph-name="-del" unicode="&#58886;" d="M764.586667-110.93333299999995H255.556267A82.8416 82.8416 0 0 0 170.666667-30.481067000000053V640h678.8096v-670.481067A82.8416 82.8416 0 0 0 764.586667-110.93333299999995z m-118.749867 512a34.133333 34.133333 0 0 1-33.962667-33.928534v-205.175466a33.962667 33.962667 0 0 1 67.8912 0v205.141333a34.133333 34.133333 0 0 1-33.928533 33.962667z m-135.748267 0a34.133333 34.133333 0 0 1-33.962666-33.928534v-205.175466a33.928533 33.928533 0 1 1 67.8912 0v205.141333a34.133333 34.133333 0 0 1-33.928534 33.962667z m-135.7824 0a34.133333 34.133333 0 0 1-33.928533-33.928534v-205.175466a33.928533 33.928533 0 1 1 67.857067 0v205.141333a34.133333 34.133333 0 0 1-33.928534 33.962667zM607.0272 806.8096v22.766933a47.069867 47.069867 0 0 1-48.469333 45.499734h-96.9728A47.069867 47.069867 0 0 1 413.013333 829.576533v-22.766933H194.901333A23.517867 23.517867 0 0 1 170.666667 784.0426669999999v-22.766934a23.517867 23.517867 0 0 1 24.234666-22.7328h630.340267a23.517867 23.517867 0 0 1 24.234667 22.766934V784.0426669999999a23.517867 23.517867 0 0 1-24.234667 22.766933z"  horiz-adv-x="1024" />

    
    <glyph glyph-name="-close-clicked" unicode="&#58887;" d="M512 384m-512 0a512 512 0 1 1 1024 0 512 512 0 1 1-1024 0ZM292.1472 218.760533l171.793067 166.058667-166.058667 171.793067a34.133333 34.133333 0 1 0 49.083733 47.445333l166.058667-171.793067 171.793067 166.058667a34.133333 34.133333 0 1 0 47.445333-49.083733l-171.793067-166.058667 166.058667-171.793067a34.133333 34.133333 0 0 0-49.083733-47.445333l-166.058667 171.793067-171.793067-166.058667a34.133333 34.133333 0 0 0-47.445333 49.083733z"  horiz-adv-x="1024" />

    
    <glyph glyph-name="-filter-Unclicked" unicode="&#58888;" d="M777.642667 478.037333l-248.789334-290.133333a20.906667 20.906667 0 0 0-29.866666-2.090667 21.333333 21.333333 0 0 0-2.005334 2.005334l-250.368 290.133333a21.802667 21.802667 0 0 0 1.962667 30.378667 20.949333 20.949333 0 0 0 13.952 5.333333h499.029333a21.333333 21.333333 0 0 0 21.333334-21.333333 21.76 21.76 0 0 0-5.248-14.293334z"  horiz-adv-x="1024" />

    
    <glyph glyph-name="-location" unicode="&#58889;" d="M287.243561 222.913632c-1.552285 2.02472 1.349813-2.02472 0 0zM511.987456 895.997975a403.594141 403.594141 0 0 1-301.750737-673.151833l262.808626-331.379136a46.09612 46.09612 0 0 1 75.252085 0l261.728776 331.379136A392.120729 392.120729 0 0 1 916.93141 492.336343 404.269048 404.269048 0 0 1 511.987456 895.997975z m0-605.863646a202.471977 202.471977 0 1 0 202.944411 202.471977 202.471977 202.471977 0 0 0-202.944411-202.471977z"  horiz-adv-x="1024" />

    
    <glyph glyph-name="-preview" unicode="&#58890;" d="M716.790226 896c-511.983709 0-716.790226-511.983709-716.790226-511.983709s204.806516-512.016291 716.790226-512.016291 716.790226 512.016291 716.790225 512.016291S1228.773935 896 716.790226 896z m0-819.193484a307.209774 307.209774 0 1 0 307.209774 307.209775 307.209774 307.209774 0 0 0-307.209774-307.209775z m0 0M870.541729 384.016291A153.653759 153.653759 0 1 0 716.88797 537.67005a153.686341 153.686341 0 0 0 153.653759-153.653759z m0 0"  horiz-adv-x="1433" />

    
    <glyph glyph-name="-default-Cosmetics" unicode="&#58891;" d="M469.333333 384H85.333333v42.666667a128 128 0 0 0 128 128h128a128 128 0 0 0 128-128z m0-85.333333v-256a42.666667 42.666667 0 0 0-42.666666-42.666667H128a42.666667 42.666667 0 0 0-42.666667 42.666667V298.66666699999996zM938.666667 384H554.666667v42.666667a128 128 0 0 0 128 128h128a128 128 0 0 0 128-128z m0-85.333333v-256a42.666667 42.666667 0 0 0-42.666667-42.666667H597.333333a42.666667 42.666667 0 0 0-42.666666 42.666667V298.66666699999996zM213.333333 768h128a42.666667 42.666667 0 0 0 42.666667-42.666667v-42.666666a42.666667 42.666667 0 0 0-42.666667-42.666667h-128a42.666667 42.666667 0 0 0-42.666666 42.666667V725.333333a42.666667 42.666667 0 0 0 42.666666 42.666667z m469.333334 0h128a42.666667 42.666667 0 0 0 42.666666-42.666667v-42.666666a42.666667 42.666667 0 0 0-42.666666-42.666667h-128a42.666667 42.666667 0 0 0-42.666667 42.666667V725.333333a42.666667 42.666667 0 0 0 42.666667 42.666667zM42.666667 763.178667v42.666666H0v42.666667h42.666667v42.666667h42.666666v-42.666667h42.666667v-42.666667H85.333333v-42.666666z"  horiz-adv-x="1024" />

    
    <glyph glyph-name="-search" unicode="&#58893;" d="M609.834667 183.168a42.666667 42.666667 0 0 0 60.330666 60.330667l170.666667-170.666667a42.666667 42.666667 0 0 0-60.330667-60.330667zM469.333333 213.33333300000004a213.333333 213.333333 0 1 1-213.333333 213.333334 213.333333 213.333333 0 0 1 213.333333-213.333334z m0-85.333333a298.666667 298.666667 0 1 0 298.666667 298.666667 298.666667 298.666667 0 0 0-298.666667-298.666667z"  horiz-adv-x="1024" />

    
    <glyph glyph-name="-Pox-risk" unicode="&#58896;" d="M1017.70871 380.85435500000006a508.854355 508.854355 0 1 1-1017.70871 0 508.854355 508.854355 0 0 1 1017.70871 0zM465.740513 164.96132999999998A43.113842 43.113842 0 1 0 508.854355 121.96313699999996a43.113842 43.113842 0 0 0-43.113842 42.998193z m20.307915 97.514998a6.152512 6.152512 0 0 0-6.152512 5.921214l-13.692808 370.469101a12.328153 12.328153 0 0 0 12.328153 12.767618h60.669317a12.328153 12.328153 0 0 0 12.305024-12.767618l-13.669679-370.445971a6.152512 6.152512 0 0 0-6.152511-5.921214z"  horiz-adv-x="1024" />

    
    <glyph glyph-name="-2ndwarning" unicode="&#58897;" d="M1023.987456 377.670606A514.732895 514.732895 0 0 1 505.670606 895.987456C229.219592 895.987456 0 666.767864 0 377.670606A509.331361 509.331361 0 0 1 505.670606-128C794.767864-128 1023.987456 101.21959200000003 1023.987456 377.670606zM473.223003 181.38500999999997a38.783525 38.783525 0 1 0 38.783525-38.783525 38.770725 38.770725 0 0 0-38.783525 38.783525z m18.265376 87.691726a5.542332 5.542332 0 0 0-5.529532 5.337534l-12.313449 333.07752a11.084664 11.084664 0 0 0 11.097464 11.519859h54.540132a11.071864 11.071864 0 0 0 11.071864-11.519859l-12.313449-333.07752a5.542332 5.542332 0 0 0-5.529532-5.337534z"  horiz-adv-x="1024" />

    
    <glyph glyph-name="-fujin" unicode="&#58900;" d="M810.666667 426.666667h85.333333a42.666667 42.666667 0 0 0 0-85.333334h-85.333333a42.666667 42.666667 0 0 0 0 85.333334z m-682.666667 0h85.333333a42.666667 42.666667 0 0 0 0-85.333334h-85.333333a42.666667 42.666667 0 0 0 0 85.333334z m384 384a42.666667 42.666667 0 0 0 42.666667-42.666667v-85.333333a42.666667 42.666667 0 0 0-85.333334 0v85.333333a42.666667 42.666667 0 0 0 42.666667 42.666667z m0-682.666667a42.666667 42.666667 0 0 0 42.666667-42.666667v-85.333333a42.666667 42.666667 0 0 0-85.333334 0v85.333333a42.666667 42.666667 0 0 0 42.666667 42.666667zM512 384m-85.333333 0a85.333333 85.333333 0 1 1 170.666666 0 85.333333 85.333333 0 1 1-170.666666 0ZM512 170.66666699999996a213.333333 213.333333 0 1 1-213.333333 213.333333 213.333333 213.333333 0 0 1 213.333333-213.333333z m0-85.333334a298.666667 298.666667 0 1 0 298.666667 298.666667 298.666667 298.666667 0 0 0-298.666667-298.666667z"  horiz-adv-x="1024" />

    
    <glyph glyph-name="-zp" unicode="&#58899;" d="M783.808916-127.98794999999996a58.332851 58.332851 0 0 0-56.392841 59.983667v114.472647l-0.831433 0.542238a70.575399 70.575399 0 0 0-31.401654 59.899319V571.04228a26.75045 26.75045 0 0 0 26.714301 26.726351h116.135512a26.75045 26.75045 0 0 0 26.714301-26.726351v-58.971488a26.726351 26.726351 0 0 0-53.440651 0v32.245137h-62.658712v-437.406008a16.110519 16.110519 0 0 1 10.483284-16.52021 26.702251 26.702251 0 0 0 21.773903-26.244361v-132.173733a8.74812 8.74812 0 0 1 1.506219-5.265742l1.45802-2.012308 1.45802 2.012308a8.74812 8.74812 0 0 1 1.506219 5.265742v134.595733a26.77455 26.77455 0 0 0 15.917723 24.448948 17.279345 17.279345 0 0 1 8.591473 15.917723v292.206493a26.726351 26.726351 0 1 0 53.440652 0v-292.230593a71.949071 71.949071 0 0 0-23.88261-54.223885l-0.626587-0.542239v-120.18423a58.344901 58.344901 0 0 0-56.465139-59.947517zM653.008855 431.048258a40.824561 40.824561 0 0 0-40.776362 40.788411V555.5944979999999a68.816135 68.816135 0 0 0 52.06698 66.839976l1.385721 0.337393v46.740989a40.824561 40.824561 0 0 0 40.764312 40.800461h11.278568V834.124522a61.875478 61.875478 0 0 0 123.750957 0v-123.787105h12.60404a40.84866 40.84866 0 0 0 40.788412-40.800462V622.4706229999999l1.325473-0.373542a69.201727 69.201727 0 0 0 50.777656-66.478484v-83.757828a40.824561 40.824561 0 0 0-40.788412-40.788412zM204.999064 615.168473a54.910721 54.910721 0 0 0-54.850472 54.850472V807.627117A85.191749 85.191749 0 0 0 235.243943 892.722467h175.757687a85.191749 85.191749 0 0 0 85.083301-85.09535v-137.608172a54.910721 54.910721 0 0 0-54.850473-54.850472z m30.244879 224.125393a31.690849 31.690849 0 0 1-31.6547-31.6547v-139.415634l239.452678 0.409692-0.397642 139.017992a31.678799 31.678799 0 0 1-31.642649 31.64265zM181.176704 692.19049a26.726351 26.726351 0 0 0 0 53.440651h119.292548a26.726351 26.726351 0 1 0 0-53.440651zM379.84097 692.19049a26.726351 26.726351 0 1 0 0 53.440651h27.931326a26.726351 26.726351 0 1 0 0-53.440651zM265.283975 755.813182a26.726351 26.726351 0 1 0 0 53.440651h190.024594a26.726351 26.726351 0 1 0 0-53.440651zM152.076552-75.99326900000005c-11.965404 0-21.689554 6.651463-21.689554 14.809145V147.73448199999996a212.858874 212.858874 0 0 1 94.662854-22.677634c45.174521 0 109.351502 14.821195 141.57254 56.633836 15.664678 31.12451 53.946741 64.068533 115.123333 64.068533a199.604147 199.604147 0 0 0 35.088879-3.265483v-303.653758c0-8.157682-9.7362-14.809146-21.689554-14.809146zM226.652469 124.92430100000001a202.628635 202.628635 0 0 0-96.27752 23.063226v41.668043a136.668291 136.668291 0 0 1 96.27752-35.631117c47.138631 0 89.758605 20.111037 108.580318 51.223497 24.79839 43.077864 82.842047 70.888693 147.89866 70.888692a223.75185 223.75185 0 0 0 33.739306-2.554547v-30.124381a161.755875 161.755875 0 0 1-33.739306 3.506478c-45.282969 0-87.011261-18.906061-106.664407-48.199009h-0.084349l-0.614537-0.843483c-23.713913-43.656253-83.625281-72.997399-149.115685-72.997399zM262.874025 248.831904a25.834669 25.834669 0 1 0 25.822619 25.822619 25.846719 25.846719 0 0 0-25.822619-25.822619zM415.146745 351.29094699999996a37.052988 37.052988 0 1 0 37.052988 37.040939 37.089138 37.089138 0 0 0-37.052988-37.040939zM206.987274-127.98794999999996C135.327397-127.98794999999996 77.018645-64.12426300000004 77.018645 14.40397299999995V550.473353a113.448418 113.448418 0 0 0 39.981078 87.336605L133.592232 651.390028a75.069957 75.069957 0 0 0 47.415776 17.231146h127.727374a26.726351 26.726351 0 1 0 0-53.452701H181.008008a21.316012 21.316012 0 0 1-13.555972-5.097045l-16.580459-13.592121a59.561926 59.561926 0 0 1-20.41228-46.005954v-536.06938c0-49.054542 34.329744-88.951271 76.527977-88.951272h232.271025c42.174133 0 76.527977 39.89673 76.527977 88.951272V548.461044a67.334016 67.334016 0 0 1-10.664031 36.643297 26.714301 26.714301 0 1 0 44.656382 29.353197 119.641991 119.641991 0 0 0 19.4483-65.996494v-534.057071c0-78.516186-58.308751-142.391923-129.968628-142.391923z"  horiz-adv-x="1024" />

    
    <glyph glyph-name="-list-spread" unicode="&#58901;" d="M286.762667 414.976a42.368 42.368 0 0 1-60.202667 0 43.008 43.008 0 0 1 0-60.544l255.36-256.938667a42.368 42.368 0 0 1 58.837333-1.28l255.36 235.52a43.008 43.008 0 0 1 2.602667 60.501334 42.368 42.368 0 0 1-60.117333 2.602666l-225.322667-207.786666zM286.634667 713.088a42.368 42.368 0 0 1-60.202667 0 43.008 43.008 0 0 1 0-60.544l255.488-256.938667a42.368 42.368 0 0 1 58.837333-1.28l255.36 235.52a43.008 43.008 0 0 1 2.517334 60.501334 42.368 42.368 0 0 1-60.032 2.602666l-225.322667-207.786666z"  horiz-adv-x="1024" />

    
    <glyph glyph-name="-Share" unicode="&#58907;" d="M463.658667 810.666667a42.666667 42.666667 0 0 0 0-85.333334h-208.277334a85.184 85.184 0 0 1-85.013333-85.333333v-512a85.184 85.184 0 0 1 85.013333-85.333333h510.101334a85.184 85.184 0 0 1 85.013333 85.333333v85.333333a42.517333 42.517333 0 1 0 85.013333 0v-85.333333a170.346667 170.346667 0 0 0-170.048-170.666667h-510.08A170.346667 170.346667 0 0 0 85.333333 128V640a170.346667 170.346667 0 0 0 170.048 170.666667zM295.722667 303.03999999999996c0 32.533333-6.976 160.96 94.336 262.869333 68.266667 68.565333 170.218667 80.469333 292.266666 85.888V817.642667a32 32 0 0 0 53.504 23.701333l277.674667-251.968a32 32 0 0 0 2.133333-45.205333q-0.938667-1.024-1.962666-1.984L736 285.013333a32 32 0 0 0-53.738667 23.466667v164.778667a657.066667 657.066667 0 0 1-182.826666-23.018667q-107.84-34.304-166.890667-194.133333a32 32 0 0 0-29.952-20.864h-7.082667c0.021333 19.562667 0.213333 50.56 0.213334 67.797333z"  horiz-adv-x="1024" />

    
    <glyph glyph-name="-ClickView" unicode="&#58908;" d="M151.963467 20.038377999999966a497.490759 497.490759 0 0 0-111.413868 158.12962A467.765463 467.765463 0 0 0 0.07328 368.48669099999995 518.800822 518.800822 0 0 0 527.513316 895.926727a467.765463 467.765463 0 0 0 190.318693-40.47632 497.490759 497.490759 0 0 0 158.12962-111.413868A538.735009 538.735009 0 0 0 1023.980168 368.48669099999995a474.900814 474.900814 0 0 0-39.996362-190.318693 517.520938 517.520938 0 0 0-266.151797-266.151797A474.900814 474.900814 0 0 0 527.513316-127.98016199999995a538.735009 538.735009 0 0 0-375.549849 148.01854zM195.255531 700.744476a447.959264 447.959264 0 0 1 633.542387-633.542387A447.959264 447.959264 0 0 1 195.255531 700.744476z m230.187067-554.637563a31.99709 31.99709 0 0 0 0 45.243886l181.00754 180.975543-181.00754 181.007539a31.99709 31.99709 0 0 0 45.275883 45.30788l203.629482-203.693477a31.99709 31.99709 0 0 0 0-45.211888l-203.629482-203.629483a31.99709 31.99709 0 0 0-45.275883 0z"  horiz-adv-x="1024" />

    
    <glyph glyph-name="-Progress" unicode="&#58909;" d="M505.960108-90.078937L24.093912 414.133804a82.21842 82.21842 0 0 0-24.09331 56.739744 75.171127 75.171127 0 0 0 0.963733 12.046655A60.233275 60.233275 0 0 0 0.000602 493.942893V835.766725a60.233275 60.233275 0 0 0 60.233275 60.233275h1084.198941a60.233275 60.233275 0 0 0 60.233275-60.233275v-341.823832a60.233275 60.233275 0 0 0-0.963732-10.902223A79.869322 79.869322 0 0 0 1180.572783 414.133804l-481.866196-504.272975a110.588292 110.588292 0 0 0-24.09331-18.913248A142.692627 142.692627 0 0 0 602.333348-127.96566700000005a134.019036 134.019036 0 0 0-96.37324 37.826496z"  horiz-adv-x="1204" />

    
    <glyph glyph-name="-Fire" unicode="&#58910;" d="M597.333333 573.44Q576 356.522667 469.333333 341.333333s64 253.866667-21.333333 384a818.432 818.432 0 0 0-100.522667-307.2A440.917333 440.917333 0 0 1 256 182.954667C256 34.133333 405.845333-42.666667 512-42.666667a231.936 231.936 0 0 1 256 234.325334Q768 304.042667 597.333333 573.44z"  horiz-adv-x="1024" />

    
    <glyph glyph-name="-add" unicode="&#58911;" d="M1331.198874-127.99795200000005H512.000512a508.619783 508.619783 0 0 0-362.034476 149.9645A508.568583 508.568583 0 0 0 0.001536 384.001024 512.562175 512.562175 0 0 0 512.000512 896h819.198362a512.562175 512.562175 0 0 0 511.998976-511.998976 508.568583 508.568583 0 0 0-149.913301-362.034476A508.619783 508.619783 0 0 0 1331.198874-127.99795200000005zM588.800358 435.200922a25.599949 25.599949 0 0 1-25.599948-25.599949 25.599949 25.599949 0 0 1 25.599948-25.599949h307.199386v-307.199386a25.599949 25.599949 0 0 1 25.599949-25.599948 25.599949 25.599949 0 0 1 25.599949 25.599948v307.199386h307.199385a25.599949 25.599949 0 0 1 25.599949 25.599949 25.599949 25.599949 0 0 1-25.599949 25.599949h-307.199385V742.400307a25.599949 25.599949 0 0 1-25.599949 25.599949 25.599949 25.599949 0 0 1-25.599949-25.599949v-307.199385z"  horiz-adv-x="1843" />

    
    <glyph glyph-name="-label" unicode="&#58913;" d="M2195.904563-127.99800900000002H512a508.613133 508.613133 0 0 0-362.039481 149.958528A508.641578 508.641578 0 0 0 0.001991 384 508.670022 508.670022 0 0 0 149.960519 746.039481 508.613133 508.613133 0 0 0 512 895.998009h1223.106355a508.613133 508.613133 0 0 0 362.039481-149.958528A508.670022 508.670022 0 0 0 2247.104363 384v-460.798208a51.199801 51.199801 0 0 0-51.1998-51.199801zM2076.438361 99.55666199999996a56.888668 56.888668 0 0 1-56.888668-56.888668 56.888668 56.888668 0 0 1 56.888668-56.888668 56.888668 56.888668 0 0 1 56.888667 56.888668 56.888668 56.888668 0 0 1-56.888667 56.888668z"  horiz-adv-x="2247" />

    
    <glyph glyph-name="-General-Heart" unicode="&#58916;" d="M886.058992 896C780.388253 896 656.339994 776.546121 590.705995 699.098002 525.071995 776.546121 401.023737 896 295.352997 896 108.296099 896 0 750.292521 0 564.548303q0-308.479797 590.705995-656.339995 590.705995 344.578497 590.705995 639.931495C1181.41199 737.165721 1073.115891 896 886.058992 896z"  horiz-adv-x="1228" />

    
    <glyph glyph-name="-heartline" unicode="&#58917;" d="M886.058992 896C780.388253 896 656.339994 775.889781 590.705995 699.098002 525.071995 775.889781 401.023737 896 295.352997 896 108.296099 896 0 750.292521 0 564.548303q0-308.479797 590.705995-656.339995 590.705995 344.578497 590.705995 639.931495C1181.41199 737.165721 1073.115891 896 886.058992 896zM590.705995-12.374552C242.189458 196.341566 65.633999 390.618204 65.633999 564.548303c0 122.735579 60.383279 262.535998 229.718998 262.535998 58.414259 0 154.896239-65.633999 245.471158-173.930099l49.88184-55.132559 49.88184 58.414259C731.162754 764.732001 827.644733 830.366001 886.058992 830.366001 1044.893271 830.366001 1115.77799 690.565582 1115.77799 551.421503c0-163.428659-181.149838-357.705297-525.071995-563.796055z"  horiz-adv-x="1228" />

    
    <glyph glyph-name="-Update" unicode="&#58918;" d="M363.958857 584.265143l40.448-28.306286a20.772571 20.772571 0 0 0-5.412571-36.571428l-140.507429-46.299429a20.772571 20.772571 0 0 0-27.209143 18.944l-4.096 147.529143a20.772571 20.772571 0 0 0 32.621715 17.554286l33.426285-23.405715A331.922286 331.922286 0 1 0 180.077714 384h82.944a248.685714 248.685714 0 1 1 100.937143 200.265143z"  horiz-adv-x="1024" />

    


  </font>
</defs>
</svg>
