<svg xmlns="http://www.w3.org/2000/svg" xmlns:xlink="http://www.w3.org/1999/xlink" width="18" height="24" viewBox="0 0 18 24">
  <defs>
    <linearGradient id="linear-gradient" x1="0.5" x2="0.5" y2="1" gradientUnits="objectBoundingBox">
      <stop offset="0" stop-color="#fee75c"/>
      <stop offset="1" stop-color="#fcca2f"/>
    </linearGradient>
    <linearGradient id="linear-gradient-2" x1="0.5" x2="0.5" y2="1" gradientUnits="objectBoundingBox">
      <stop offset="0" stop-color="#fe5f5c"/>
      <stop offset="1" stop-color="#fca22f"/>
    </linearGradient>
  </defs>
  <g id="签到分享" transform="translate(-1545)">
    <rect id="矩形_11" data-name="矩形 11" width="18" height="24" rx="1" transform="translate(1545)" fill="url(#linear-gradient)"/>
    <rect id="矩形_12" data-name="矩形 12" width="16" height="22" rx="1" transform="translate(1546 1)" fill="url(#linear-gradient-2)"/>
    <g id="路径_36" data-name="路径 36" transform="translate(-0.932 -0.48)" fill="url(#linear-gradient-2)">
      <path d="M 1555.17529296875 9.570794105529785 L 1546.5 5.181243419647217 L 1546.5 1.404182076454163 L 1563.432250976563 1.404182076454163 L 1563.432250976563 5.187943458557129 L 1555.17529296875 9.570794105529785 Z" stroke="none"/>
      <path d="M 1547 1.904182434082031 L 1547 4.873874664306641 L 1555.169799804688 9.007643699645996 L 1562.932250976563 4.887269496917725 L 1562.932250976563 1.904182434082031 L 1547 1.904182434082031 M 1546 0.9041824340820313 L 1563.932250976563 0.9041824340820313 L 1563.932250976563 5.488612174987793 L 1555.180786132813 10.13394165039063 L 1546 5.488612174987793 L 1546 0.9041824340820313 Z" stroke="none" fill="#fde65b"/>
    </g>
    <path id="路径_37" data-name="路径 37" d="M5.872-2.392A9.4,9.4,0,0,1,4.88-.336H.536V.5H7.48v-.84H5.9a16.163,16.163,0,0,0,.824-1.816ZM1.32-1.976A8.556,8.556,0,0,1,2.08-.568l.808-.384a7.566,7.566,0,0,0-.808-1.36ZM3.3-2.152A9.417,9.417,0,0,1,3.944-.64l.8-.32a8.316,8.316,0,0,0-.7-1.472Zm-.48-1.192a7.461,7.461,0,0,0,1.184-.832,6.33,6.33,0,0,0,1.128.832ZM4.48-4.888a3.214,3.214,0,0,0,.408-.5h.456a4.873,4.873,0,0,1,.536.936l.912-.192a5.063,5.063,0,0,0-.456-.744H7.512v-.752H5.336a4.146,4.146,0,0,0,.208-.48l-.9-.224a3.551,3.551,0,0,1-.792,1.3v-.6H2.12c.072-.16.136-.32.192-.472L1.424-6.84a5.4,5.4,0,0,1-1.2,2.048,5.451,5.451,0,0,1,.784.5,6.772,6.772,0,0,0,.744-1.088h.1a5.563,5.563,0,0,1,.416.936l.848-.24a3.327,3.327,0,0,0-.328-.7H3.7l-.008.008c.168.1.432.272.632.408L3.9-5.176a7.9,7.9,0,0,1-3.672,2,3.337,3.337,0,0,1,.544.744,13.473,13.473,0,0,0,1.536-.632v.5H5.6v-.528A8.231,8.231,0,0,0,7.184-2.5a3.506,3.506,0,0,1,.568-.752A7.612,7.612,0,0,1,4.52-4.656c.048-.048.1-.1.136-.144Z" transform="translate(1550 19)" fill="#fde65b"/>
  </g>
</svg>
